<?xml version="1.0" encoding="utf-8"?>
<!-- Generator: Adobe Illustrator 24.0.1, SVG Export Plug-In . SVG Version: 6.00 Build 0)  -->
<svg version="1.1" id="Layer_1" xmlns="http://www.w3.org/2000/svg" xmlns:xlink="http://www.w3.org/1999/xlink" x="0px" y="0px"
	 viewBox="0 0 197.28 183.22" style="enable-background:new 0 0 197.28 183.22;" xml:space="preserve">
<g fill="#fff">
	<path d="M96.64,21.89c-41.03,0-74.42,33.38-74.42,74.41c0,41.03,33.38,74.42,74.42,74.42c41.03,0,74.42-33.38,74.42-74.42
		C171.06,55.28,137.68,21.89,96.64,21.89z M96.64,163.98c-37.31,0-67.67-30.36-67.67-67.67c0-37.31,30.36-67.67,67.67-67.67
		c37.31,0,67.67,30.36,67.67,67.67C164.31,133.62,133.96,163.98,96.64,163.98z"/>
	<path d="M82.58,110.76c-1.69-1.2-3.73-1.79-6.13-1.79c-2.54,0-4.71,0.52-6.51,1.57s-3.18,2.58-4.12,4.58
		c-0.95,2-1.42,4.42-1.42,7.26v3.23c0,2.72,0.49,5.04,1.48,6.97c0.98,1.92,2.41,3.38,4.29,4.37c1.88,0.99,4.43,1.66,6.79,1.49
		c2.35-0.17,3.56-0.37,5.32-1.12c1.77-0.74,3.36-1.8,4.77-3.16l-3.7-3.7c-0.88,0.83-1.89,1.47-3.01,1.93
		c-1.12,0.46-2.25,0.69-3.39,0.69c-2.3,0-4.07-0.63-5.32-1.9c-1.21-1.22-1.82-2.97-1.87-5.21h18.04v-1.88
		c0-3.16-0.45-5.88-1.34-8.14S84.27,111.95,82.58,110.76z M69.79,121.44c0.09-2.24,0.65-4.02,1.71-5.3c1.17-1.4,2.82-2.1,4.95-2.1
		c1.75,0,3.14,0.65,4.18,1.95c1.04,1.3,1.64,3.11,1.81,5.45H69.79z"/>
	<path d="M108.32,110.22c-1.69-0.84-3.72-1.26-6.1-1.26c-2.17,0-4.14,0.36-5.92,1.09c-1.77,0.73-3.21,1.74-4.29,3.05l4.11,2.81
		c0.85-0.63,1.82-1.11,2.91-1.46c1.09-0.35,2.21-0.52,3.35-0.52c1.84,0,3.26,0.52,4.26,1.56c1,1.04,1.5,2.5,1.5,4.37v1.21h-7.89
		c-3.24,0-5.66,0.71-7.26,2.12c-1.6,1.42-2.4,3.54-2.4,6.37c0,2.98,0.87,5.2,2.62,6.66s4.39,2.19,7.92,2.19
		c1.2,0,2.27-0.12,3.23-0.37c0.96-0.25,1.8-0.62,2.52-1.12c0.47-0.32,0.88-0.73,1.26-1.17v2.24h5.35v-18.4
		c0-2.24-0.44-4.16-1.32-5.75C111.3,112.27,110.01,111.06,108.32,110.22z M106.57,133.16c-1.06,0.46-2.66,0.69-4.81,0.69
		c-1.97,0-3.43-0.35-4.4-1.05c-0.97-0.7-1.45-1.77-1.45-3.23c0-1.34,0.36-2.34,1.09-2.99c0.73-0.65,1.83-0.98,3.3-0.98h7.86v5.41
		C108.15,131.98,107.63,132.7,106.57,133.16z"/>
	<path d="M51.8,90.55c1.48,0.91,3.27,1.37,5.37,1.37c1.89,0,3.49-0.48,4.79-1.43c1.04-0.77,1.84-1.7,2.41-2.76v3.7H70V51.3h-5.63
		v15.09c-0.77-1.15-1.71-2.09-2.83-2.79c-1.41-0.88-2.96-1.32-4.65-1.32c-2.02,0-3.76,0.46-5.2,1.37s-2.54,2.24-3.3,3.99
		c-0.75,1.75-1.13,3.85-1.13,6.32v6.32c0,2.45,0.39,4.54,1.16,6.29C49.19,88.31,50.32,89.64,51.8,90.55z M52.89,74.04
		c0-2.1,0.51-3.72,1.53-4.88c1.02-1.16,2.46-1.74,4.32-1.74c1.2,0,2.21,0.23,3.05,0.68c0.84,0.45,1.48,1.11,1.92,1.97
		c0.44,0.86,0.66,1.9,0.66,3.12v7.7c0,1.23-0.22,2.29-0.66,3.17c-0.44,0.88-1.08,1.56-1.92,2.03c-0.84,0.47-1.85,0.7-3.05,0.7
		c-1.86,0-3.3-0.57-4.32-1.7c-1.02-1.13-1.53-2.74-1.53-4.81V74.04z"/>
	<path d="M83.88,74.48c-3.24,0-5.66,0.71-7.26,2.12c-1.6,1.42-2.4,3.54-2.4,6.37c0,2.98,0.87,5.2,2.62,6.66
		c1.75,1.46,4.39,2.19,7.92,2.19c1.2,0,2.27-0.12,3.23-0.37s1.8-0.62,2.52-1.12c0.47-0.32,0.88-0.73,1.26-1.17v2.24h5.35v-18.4
		c0-2.24-0.44-4.16-1.32-5.75c-0.88-1.59-2.17-2.8-3.86-3.64c-1.69-0.84-3.72-1.26-6.1-1.26c-2.17,0-4.14,0.36-5.92,1.09
		c-1.77,0.73-3.21,1.74-4.29,3.05l4.11,2.81c0.85-0.63,1.82-1.11,2.91-1.46c1.09-0.35,2.21-0.52,3.35-0.52
		c1.84,0,3.26,0.52,4.26,1.56c1,1.04,1.5,2.5,1.5,4.37v1.21H83.88z M90.18,86.56c-1.06,0.46-2.66,0.69-4.81,0.69
		c-1.97,0-3.43-0.35-4.4-1.05c-0.97-0.7-1.45-1.77-1.45-3.23c0-1.34,0.36-2.34,1.09-2.99c0.73-0.65,1.83-0.98,3.3-0.98h7.86v5.41
		C91.77,85.39,91.24,86.1,90.18,86.56z"/>
	<rect x="102.75" y="62.78" width="5.63" height="28.64"/>
	<rect x="102.75" y="51.3" width="5.63" height="5.63"/>
	<path d="M120.71,91.56h3.31V86.2h-2.65c-0.55,0-0.98-0.19-1.28-0.57c-0.3-0.38-0.46-0.91-0.46-1.61V51.3H114v32.67
		c0,2.41,0.58,4.28,1.75,5.6C116.92,90.89,118.57,91.56,120.71,91.56z"/>
	<path d="M142.76,65.4l-5.79,17.7l-7.21-20.38h-5.74l10.39,28.18l-1.37,4.18c-0.46,1.03-1,1.76-1.61,2.18
		c-0.62,0.42-1.45,0.63-2.5,0.63h-1.13v0h-3.03h-5.63H61.58h-2.23h-1.91c-2.43,0-4.23,0.63-5.39,1.89c-1.17,1.26-1.75,3.16-1.75,5.7
		v3.89h-3.03v4.8h3.03v23.84h5.63v-23.84h5.66v-4.8h-5.66v-3.95c0-0.64,0.14-1.17,0.41-1.57c0.28-0.4,0.68-0.61,1.21-0.61h1.8h2.23
		h57.56v6.13h-2.95v5.08h2.95v16.11c0,2.5,0.54,4.39,1.61,5.67c1.08,1.28,2.77,1.92,5.09,1.92h3.26v-5.35h-2.7
		c-0.53,0-0.94-0.19-1.21-0.57c-0.28-0.38-0.41-0.91-0.41-1.61v-16.17h4.33v-5.08h-4.33v-6.13h3.03h0.9h0.23
		c1.53,0,2.81-0.11,3.86-0.44c1.05-0.33,1.93-0.88,2.65-1.64c0.72-0.76,1.3-1.8,1.74-3.1l11.32-32.67H142.76z"/>
	<rect x="133.94" y="132.8" width="5.35" height="5.35"/>
</g>
</svg>
